<svg xmlns="http://www.w3.org/2000/svg" width="88" height="86" viewBox="0 0 88 86">
  <g id="hex_polygon" fill="none">
    <path d="M62.33,0a6,6,0,0,1,5.341,3.267l18.93,37a6,6,0,0,1,0,5.466l-18.93,37A6,6,0,0,1,62.33,86H25.67a6,6,0,0,1-5.341-3.267l-18.93-37a6,6,0,0,1,0-5.466l18.93-37A6,6,0,0,1,25.67,0Z" stroke="none"/>
    <path d="M 29.33986282348633 12.00000762939453 L 13.47939300537109 43.00000381469727 L 29.33985137939453 74 L 58.66014862060547 74 L 74.52060699462891 42.99998092651367 L 58.66016006469727 12.00000762939453 L 29.33986282348633 12.00000762939453 M 25.6699333190918 7.62939453125e-06 L 62.33007049560547 7.62939453125e-06 C 64.58270263671875 7.62939453125e-06 66.64554595947266 1.261734008789062 67.67156982421875 3.267143249511719 L 86.60179901123047 40.26713943481445 C 87.47982025146484 41.98325347900391 87.47982025146484 44.01673126220703 86.60179901123047 45.73284530639648 L 67.67156982421875 82.73284149169922 C 66.64554595947266 84.73825073242188 64.58270263671875 86 62.33007049560547 86 L 25.6699333190918 86 C 23.41729736328125 86 21.35445404052734 84.73825073242188 20.32843017578125 82.73284149169922 L 1.398200988769531 45.73284530639648 C 0.5201797485351562 44.01673126220703 0.5201797485351562 41.98325347900391 1.398200988769531 40.26713943481445 L 20.32845306396484 3.267143249511719 C 21.35445404052734 1.261734008789062 23.41729736328125 7.62939453125e-06 25.6699333190918 7.62939453125e-06 Z" stroke="none" fill="#bf1a2f"/>
  </g>
</svg>
