<svg xmlns="http://www.w3.org/2000/svg" width="338" height="330" viewBox="0 0 338 330">
  <g id="Polygon_9" data-name="Polygon 9" fill="none">
    <path d="M227.822,0A42,42,0,0,1,265.2,22.855l62.991,123a42,42,0,0,1,0,38.289l-62.991,123A42,42,0,0,1,227.822,330H110.178A42,42,0,0,1,72.8,307.145L9.8,184.145a42,42,0,0,1,0-38.289l62.991-123A42,42,0,0,1,110.178,0Z" stroke="none"/>
    <path d="M 125.4629211425781 67 L 75.27493286132812 165.0000610351562 L 125.4628143310547 263 L 212.5372772216797 263 L 262.7250366210938 165.0000152587891 L 212.5372314453125 67 L 125.4629211425781 67 M 110.17822265625 0 L 227.82177734375 0 C 243.5843353271484 0 258.019775390625 8.825653076171875 265.2047729492188 22.85543823242188 L 328.1956787109375 145.8554382324219 C 334.3516540527344 157.8761138916016 334.3516540527344 172.1238861083984 328.1956787109375 184.1445617675781 L 265.2047729492188 307.1446533203125 C 258.019775390625 321.1743469238281 243.5843353271484 330 227.82177734375 330 L 110.17822265625 330 C 94.41566467285156 330 79.980224609375 321.1743469238281 72.79522705078125 307.1446533203125 L 9.8043212890625 184.1445617675781 C 3.648345947265625 172.1238861083984 3.648345947265625 157.8761138916016 9.8043212890625 145.8554382324219 L 72.79531860351562 22.85543823242188 C 79.980224609375 8.825653076171875 94.41566467285156 0 110.17822265625 0 Z" stroke="none" fill="#05ddb9"/>
  </g>
</svg>
