<svg xmlns="http://www.w3.org/2000/svg" width="154" height="154" viewBox="0 0 154 154">
  <path id="Check-dc-icon-black.028ff06" d="M77,0a77,77,0,1,0,77,77A77,77,0,0,0,77,0ZM98.315,110.11a32.8,32.8,0,0,1-18.655-5.775,37.285,37.285,0,0,0,7.1-8.435,22.148,22.148,0,1,0-3.57-35.1V65.66c.035-.035.07-.105.105-.14V95.2c-.035.035-.07.105-.105.14v.14h-.07A33.122,33.122,0,1,1,74.34,49.63a37.284,37.284,0,0,0-7.105,8.435,22.158,22.158,0,1,0,5,33.6V56.6A33.11,33.11,0,1,1,98.315,110.11Z" fill="#fff"/>
</svg>
